<?xml version="1.0" encoding="UTF-8" standalone="no"?>
<!DOCTYPE svg PUBLIC "-//W3C//DTD SVG 1.1//EN"
 "http://www.w3.org/Graphics/SVG/1.1/DTD/svg11.dtd">
<!-- Generated by graphviz version 2.40.1 (20161225.0304)
 -->
<!-- Title: G Pages: 1 -->
<svg width="1302pt" height="317pt"
 viewBox="0.00 0.00 1302.00 316.80" xmlns="http://www.w3.org/2000/svg" xmlns:xlink="http://www.w3.org/1999/xlink">
<g id="graph0" class="graph" transform="scale(1 1) rotate(0) translate(4 312.8)">
<title>G</title>
<polygon fill="#ffffff" stroke="transparent" points="-4,4 -4,-312.8 1298,-312.8 1298,4 -4,4"/>
<text text-anchor="middle" x="647" y="-8.2" font-family="Times,serif" font-size="14.00" fill="#000000">Sample family nesting structure &#45; bottom to top</text>
<g id="clust1" class="cluster">
<title>cluster_0</title>
<polygon fill="none" stroke="#000000" points="8,-32.8 8,-300.8 1286,-300.8 1286,-32.8 8,-32.8"/>
</g>
<!-- Bollard_Services_Laboratory_BenchMounted_3Sided_FIJO_646 -->
<g id="node1" class="node">
<title>Bollard_Services_Laboratory_BenchMounted_3Sided_FIJO_646</title>
<ellipse fill="#c0c0c0" stroke="#c0c0c0" cx="692" cy="-274.8" rx="264.9858" ry="18"/>
<text text-anchor="middle" x="692" y="-270.6" font-family="Times,serif" font-size="14.00" fill="#000000">Bollard_Services_Laboratory_BenchMounted_3Sided_FIJO_646</text>
</g>
<!-- GPO_Double_WallMounted_ELGP_208 -->
<g id="node2" class="node">
<title>GPO_Double_WallMounted_ELGP_208</title>
<ellipse fill="#c0c0c0" stroke="#c0c0c0" cx="692" cy="-202.8" rx="170.2002" ry="18"/>
<text text-anchor="middle" x="692" y="-198.6" font-family="Times,serif" font-size="14.00" fill="#000000">GPO_Double_WallMounted_ELGP_208</text>
</g>
<!-- Bollard_Services_Laboratory_BenchMounted_3Sided_FIJO_646&#45;&gt;GPO_Double_WallMounted_ELGP_208 -->
<g id="edge1" class="edge">
<title>Bollard_Services_Laboratory_BenchMounted_3Sided_FIJO_646&#45;&gt;GPO_Double_WallMounted_ELGP_208</title>
<path fill="none" stroke="#0000ff" d="M692,-256.6314C692,-248.931 692,-239.7743 692,-231.2166"/>
<polygon fill="#0000ff" stroke="#0000ff" points="695.5001,-231.2132 692,-221.2133 688.5001,-231.2133 695.5001,-231.2132"/>
</g>
<!-- Section Tail &#45; Upgrade -->
<g id="node3" class="node">
<title>Section Tail &#45; Upgrade</title>
<ellipse fill="#c0c0c0" stroke="#c0c0c0" cx="839" cy="-130.8" rx="99.0176" ry="18"/>
<text text-anchor="middle" x="839" y="-126.6" font-family="Times,serif" font-size="14.00" fill="#000000">Section Tail &#45; Upgrade</text>
</g>
<!-- Bollard_Services_Laboratory_BenchMounted_3Sided_FIJO_646&#45;&gt;Section Tail &#45; Upgrade -->
<g id="edge13" class="edge">
<title>Bollard_Services_Laboratory_BenchMounted_3Sided_FIJO_646&#45;&gt;Section Tail &#45; Upgrade</title>
<path fill="none" stroke="#0000ff" d="M782.9938,-257.81C821.3145,-248.6328 859.6766,-236.0434 871,-220.8 885.0638,-201.8675 873.6255,-176.1942 860.6795,-157.1127"/>
<polygon fill="#0000ff" stroke="#0000ff" points="863.4067,-154.9109 854.7115,-148.8573 857.7338,-159.012 863.4067,-154.9109"/>
</g>
<!-- GPO_EmergencyPower_Double_WallMounted_ELGP_223 -->
<g id="node5" class="node">
<title>GPO_EmergencyPower_Double_WallMounted_ELGP_223</title>
<ellipse fill="#c0c0c0" stroke="#c0c0c0" cx="260" cy="-202.8" rx="243.6402" ry="18"/>
<text text-anchor="middle" x="260" y="-198.6" font-family="Times,serif" font-size="14.00" fill="#000000">GPO_EmergencyPower_Double_WallMounted_ELGP_223</text>
</g>
<!-- Bollard_Services_Laboratory_BenchMounted_3Sided_FIJO_646&#45;&gt;GPO_EmergencyPower_Double_WallMounted_ELGP_223 -->
<g id="edge4" class="edge">
<title>Bollard_Services_Laboratory_BenchMounted_3Sided_FIJO_646&#45;&gt;GPO_EmergencyPower_Double_WallMounted_ELGP_223</title>
<path fill="none" stroke="#000000" d="M582.1706,-258.4171C513.512,-247.3849 425.9398,-232.8144 359.3479,-221.3545"/>
<polygon fill="#000000" stroke="#000000" points="359.7132,-217.8659 349.2637,-219.6151 358.5233,-224.764 359.7132,-217.8659"/>
</g>
<!-- Bollard_Services_Laboratory_BenchMounted_3Sided_FIJO_646&#45;&gt;GPO_EmergencyPower_Double_WallMounted_ELGP_223 -->
<g id="edge7" class="edge">
<title>Bollard_Services_Laboratory_BenchMounted_3Sided_FIJO_646&#45;&gt;GPO_EmergencyPower_Double_WallMounted_ELGP_223</title>
<path fill="none" stroke="#0000ff" d="M591.8047,-258.1008C525.0479,-246.9747 437.3388,-232.3565 368.8647,-220.9441"/>
<polygon fill="#0000ff" stroke="#0000ff" points="369.3457,-217.4761 358.9064,-219.2844 368.1949,-224.3808 369.3457,-217.4761"/>
</g>
<!-- Bollard_Services_Laboratory_BenchMounted_3Sided_FIJO_646&#45;&gt;GPO_EmergencyPower_Double_WallMounted_ELGP_223 -->
<g id="edge14" class="edge">
<title>Bollard_Services_Laboratory_BenchMounted_3Sided_FIJO_646&#45;&gt;GPO_EmergencyPower_Double_WallMounted_ELGP_223</title>
<path fill="none" stroke="#000000" d="M601.8295,-257.8282C537.0554,-246.6338 449.2799,-231.9947 378.8176,-220.63"/>
<polygon fill="#000000" stroke="#000000" points="378.9811,-217.1113 368.552,-218.9777 377.8687,-224.0224 378.9811,-217.1113"/>
</g>
<!-- Outlet_Data_Triple_WallMounted_ITIN_036 -->
<g id="node8" class="node">
<title>Outlet_Data_Triple_WallMounted_ITIN_036</title>
<ellipse fill="#c0c0c0" stroke="#c0c0c0" cx="1089" cy="-202.8" rx="188.6299" ry="18"/>
<text text-anchor="middle" x="1089" y="-198.6" font-family="Times,serif" font-size="14.00" fill="#000000">Outlet_Data_Triple_WallMounted_ITIN_036</text>
</g>
<!-- Bollard_Services_Laboratory_BenchMounted_3Sided_FIJO_646&#45;&gt;Outlet_Data_Triple_WallMounted_ITIN_036 -->
<g id="edge9" class="edge">
<title>Bollard_Services_Laboratory_BenchMounted_3Sided_FIJO_646&#45;&gt;Outlet_Data_Triple_WallMounted_ITIN_036</title>
<path fill="none" stroke="#0000ff" d="M780.2435,-257.737C841.2935,-246.4477 922.6773,-231.6852 986.5852,-220.3065"/>
<polygon fill="#0000ff" stroke="#0000ff" points="987.4534,-223.7071 996.6862,-218.5103 986.2278,-216.8152 987.4534,-223.7071"/>
</g>
<!-- Bollard_Services_Laboratory_BenchMounted_3Sided_FIJO_646&#45;&gt;Outlet_Data_Triple_WallMounted_ITIN_036 -->
<g id="edge11" class="edge">
<title>Bollard_Services_Laboratory_BenchMounted_3Sided_FIJO_646&#45;&gt;Outlet_Data_Triple_WallMounted_ITIN_036</title>
<path fill="none" stroke="#000000" d="M790.1333,-258.0554C852.8685,-246.8978 933.716,-232.2433 995.5241,-220.8299"/>
<polygon fill="#000000" stroke="#000000" points="996.4664,-224.215 1005.6632,-218.955 995.1935,-217.3317 996.4664,-224.215"/>
</g>
<!-- GPO_Double_WallMounted_ELGP_208&#45;&gt;Section Tail &#45; Upgrade -->
<g id="edge2" class="edge">
<title>GPO_Double_WallMounted_ELGP_208&#45;&gt;Section Tail &#45; Upgrade</title>
<path fill="none" stroke="#0000ff" d="M727.9602,-185.1868C748.2476,-175.2501 773.7509,-162.7587 795.1983,-152.2539"/>
<polygon fill="#0000ff" stroke="#0000ff" points="796.9822,-155.2775 804.4233,-147.7355 793.9031,-148.991 796.9822,-155.2775"/>
</g>
<!-- Symbol_Outlet_GPO_Double_ANN -->
<g id="node4" class="node">
<title>Symbol_Outlet_GPO_Double_ANN</title>
<ellipse fill="#c0c0c0" stroke="#c0c0c0" cx="569" cy="-130.8" rx="153.3795" ry="18"/>
<text text-anchor="middle" x="569" y="-126.6" font-family="Times,serif" font-size="14.00" fill="#000000">Symbol_Outlet_GPO_Double_ANN</text>
</g>
<!-- GPO_Double_WallMounted_ELGP_208&#45;&gt;Symbol_Outlet_GPO_Double_ANN -->
<g id="edge3" class="edge">
<title>GPO_Double_WallMounted_ELGP_208&#45;&gt;Symbol_Outlet_GPO_Double_ANN</title>
<path fill="none" stroke="#000000" d="M661.5955,-185.0022C645.4811,-175.5694 625.5015,-163.874 608.2308,-153.7643"/>
<polygon fill="#000000" stroke="#000000" points="609.8793,-150.6738 599.481,-148.6425 606.343,-156.7149 609.8793,-150.6738"/>
</g>
<!-- GPO_EmergencyPower_Double_WallMounted_ELGP_223&#45;&gt;Section Tail &#45; Upgrade -->
<g id="edge8" class="edge">
<title>GPO_EmergencyPower_Double_WallMounted_ELGP_223&#45;&gt;Section Tail &#45; Upgrade</title>
<path fill="none" stroke="#0000ff" d="M403.7574,-188.2402C497.161,-178.3065 621.4774,-164.195 731,-148.8 739.5478,-147.5985 748.4614,-146.2568 757.3419,-144.8626"/>
<polygon fill="#0000ff" stroke="#0000ff" points="758.0084,-148.3007 767.3331,-143.2708 756.9069,-141.3879 758.0084,-148.3007"/>
</g>
<!-- GPO_EmergencyPower_Double_WallMounted_ELGP_223&#45;&gt;Symbol_Outlet_GPO_Double_ANN -->
<g id="edge15" class="edge">
<title>GPO_EmergencyPower_Double_WallMounted_ELGP_223&#45;&gt;Symbol_Outlet_GPO_Double_ANN</title>
<path fill="none" stroke="#000000" d="M334.0132,-185.5542C381.0193,-174.6013 441.8161,-160.4351 489.7923,-149.2562"/>
<polygon fill="#000000" stroke="#000000" points="490.8809,-152.5963 499.8257,-146.9183 489.2923,-145.779 490.8809,-152.5963"/>
</g>
<!-- Label_Text_Rotation_1_5mm_ANN -->
<g id="node6" class="node">
<title>Label_Text_Rotation_1_5mm_ANN</title>
<ellipse fill="#c0c0c0" stroke="#c0c0c0" cx="244" cy="-130.8" rx="153.9418" ry="18"/>
<text text-anchor="middle" x="244" y="-126.6" font-family="Times,serif" font-size="14.00" fill="#000000">Label_Text_Rotation_1_5mm_ANN</text>
</g>
<!-- GPO_EmergencyPower_Double_WallMounted_ELGP_223&#45;&gt;Label_Text_Rotation_1_5mm_ANN -->
<g id="edge5" class="edge">
<title>GPO_EmergencyPower_Double_WallMounted_ELGP_223&#45;&gt;Label_Text_Rotation_1_5mm_ANN</title>
<path fill="none" stroke="#000000" d="M255.9625,-184.6314C254.2513,-176.931 252.2165,-167.7743 250.3148,-159.2166"/>
<polygon fill="#000000" stroke="#000000" points="253.6779,-158.2159 248.0918,-149.2133 246.8446,-159.7344 253.6779,-158.2159"/>
</g>
<!-- Label_Text_1_5mm_ANN -->
<g id="node7" class="node">
<title>Label_Text_1_5mm_ANN</title>
<ellipse fill="#c0c0c0" stroke="#c0c0c0" cx="244" cy="-58.8" rx="115.758" ry="18"/>
<text text-anchor="middle" x="244" y="-54.6" font-family="Times,serif" font-size="14.00" fill="#000000">Label_Text_1_5mm_ANN</text>
</g>
<!-- Label_Text_Rotation_1_5mm_ANN&#45;&gt;Label_Text_1_5mm_ANN -->
<g id="edge6" class="edge">
<title>Label_Text_Rotation_1_5mm_ANN&#45;&gt;Label_Text_1_5mm_ANN</title>
<path fill="none" stroke="#000000" d="M244,-112.6314C244,-104.931 244,-95.7743 244,-87.2166"/>
<polygon fill="#000000" stroke="#000000" points="247.5001,-87.2132 244,-77.2133 240.5001,-87.2133 247.5001,-87.2132"/>
</g>
<!-- Outlet_Data_Triple_WallMounted_ITIN_036&#45;&gt;Section Tail &#45; Upgrade -->
<g id="edge10" class="edge">
<title>Outlet_Data_Triple_WallMounted_ITIN_036&#45;&gt;Section Tail &#45; Upgrade</title>
<path fill="none" stroke="#0000ff" d="M1029.4364,-185.6457C990.9588,-174.5641 940.9609,-160.1647 901.8505,-148.9009"/>
<polygon fill="#0000ff" stroke="#0000ff" points="902.7335,-145.513 892.1554,-146.1088 900.7962,-152.2396 902.7335,-145.513"/>
</g>
<!-- Symbol_Outlet_Data_Triple_ANN -->
<g id="node9" class="node">
<title>Symbol_Outlet_Data_Triple_ANN</title>
<ellipse fill="#c0c0c0" stroke="#c0c0c0" cx="1104" cy="-130.8" rx="147.0537" ry="18"/>
<text text-anchor="middle" x="1104" y="-126.6" font-family="Times,serif" font-size="14.00" fill="#000000">Symbol_Outlet_Data_Triple_ANN</text>
</g>
<!-- Outlet_Data_Triple_WallMounted_ITIN_036&#45;&gt;Symbol_Outlet_Data_Triple_ANN -->
<g id="edge12" class="edge">
<title>Outlet_Data_Triple_WallMounted_ITIN_036&#45;&gt;Symbol_Outlet_Data_Triple_ANN</title>
<path fill="none" stroke="#000000" d="M1092.7851,-184.6314C1094.3894,-176.931 1096.297,-167.7743 1098.0799,-159.2166"/>
<polygon fill="#000000" stroke="#000000" points="1101.5507,-159.7169 1100.1639,-149.2133 1094.6979,-158.2892 1101.5507,-159.7169"/>
</g>
</g>
</svg>
