<?xml version="1.0" encoding="UTF-8" standalone="no"?>
<!DOCTYPE svg PUBLIC "-//W3C//DTD SVG 1.1//EN"
 "http://www.w3.org/Graphics/SVG/1.1/DTD/svg11.dtd">
<!-- Generated by graphviz version 2.40.1 (20161225.0304)
 -->
<!-- Title: G Pages: 1 -->
<svg width="1302pt" height="317pt"
 viewBox="0.00 0.00 1302.00 316.80" xmlns="http://www.w3.org/2000/svg" xmlns:xlink="http://www.w3.org/1999/xlink">
<g id="graph0" class="graph" transform="scale(1 1) rotate(0) translate(4 312.8)">
<title>G</title>
<polygon fill="#ffffff" stroke="transparent" points="-4,4 -4,-312.8 1298,-312.8 1298,4 -4,4"/>
<text text-anchor="middle" x="647" y="-8.2" font-family="Times,serif" font-size="14.00" fill="#000000">Sample family nesting structure &#45; bottom to top</text>
<g id="clust1" class="cluster">
<title>cluster_0</title>
<polygon fill="none" stroke="#000000" points="8,-32.8 8,-300.8 1286,-300.8 1286,-32.8 8,-32.8"/>
</g>
<!-- Section Tail &#45; Upgrade -->
<g id="node1" class="node">
<title>Section Tail &#45; Upgrade</title>
<ellipse fill="#c0c0c0" stroke="#c0c0c0" cx="863" cy="-202.8" rx="99.0176" ry="18"/>
<text text-anchor="middle" x="863" y="-198.6" font-family="Times,serif" font-size="14.00" fill="#000000">Section Tail &#45; Upgrade</text>
</g>
<!-- Bollard_Services_Laboratory_BenchMounted_3Sided_FIJO_646 -->
<g id="node7" class="node">
<title>Bollard_Services_Laboratory_BenchMounted_3Sided_FIJO_646</title>
<ellipse fill="#c0c0c0" stroke="#c0c0c0" cx="786" cy="-58.8" rx="264.9858" ry="18"/>
<text text-anchor="middle" x="786" y="-54.6" font-family="Times,serif" font-size="14.00" fill="#000000">Bollard_Services_Laboratory_BenchMounted_3Sided_FIJO_646</text>
</g>
<!-- Section Tail &#45; Upgrade&#45;&gt;Bollard_Services_Laboratory_BenchMounted_3Sided_FIJO_646 -->
<g id="edge9" class="edge">
<title>Section Tail &#45; Upgrade&#45;&gt;Bollard_Services_Laboratory_BenchMounted_3Sided_FIJO_646</title>
<path fill="none" stroke="#0000ff" d="M870.2751,-184.6694C876.7026,-165.5688 883.3127,-135.2094 871,-112.8 863.9545,-99.9769 852.4317,-89.7669 840.1119,-81.8319"/>
<polygon fill="#0000ff" stroke="#0000ff" points="841.8824,-78.8126 831.5007,-76.6977 838.2976,-84.825 841.8824,-78.8126"/>
</g>
<!-- GPO_Double_WallMounted_ELGP_208 -->
<g id="node8" class="node">
<title>GPO_Double_WallMounted_ELGP_208</title>
<ellipse fill="#c0c0c0" stroke="#c0c0c0" cx="692" cy="-130.8" rx="170.2002" ry="18"/>
<text text-anchor="middle" x="692" y="-126.6" font-family="Times,serif" font-size="14.00" fill="#000000">GPO_Double_WallMounted_ELGP_208</text>
</g>
<!-- Section Tail &#45; Upgrade&#45;&gt;GPO_Double_WallMounted_ELGP_208 -->
<g id="edge5" class="edge">
<title>Section Tail &#45; Upgrade&#45;&gt;GPO_Double_WallMounted_ELGP_208</title>
<path fill="none" stroke="#0000ff" d="M823.3394,-186.1008C799.3505,-176.0002 768.5265,-163.0217 742.7691,-152.1764"/>
<polygon fill="#0000ff" stroke="#0000ff" points="744.1053,-148.9415 733.5307,-148.2866 741.3889,-155.393 744.1053,-148.9415"/>
</g>
<!-- Outlet_Data_Triple_WallMounted_ITIN_036 -->
<g id="node9" class="node">
<title>Outlet_Data_Triple_WallMounted_ITIN_036</title>
<ellipse fill="#c0c0c0" stroke="#c0c0c0" cx="1089" cy="-130.8" rx="188.6299" ry="18"/>
<text text-anchor="middle" x="1089" y="-126.6" font-family="Times,serif" font-size="14.00" fill="#000000">Outlet_Data_Triple_WallMounted_ITIN_036</text>
</g>
<!-- Section Tail &#45; Upgrade&#45;&gt;Outlet_Data_Triple_WallMounted_ITIN_036 -->
<g id="edge7" class="edge">
<title>Section Tail &#45; Upgrade&#45;&gt;Outlet_Data_Triple_WallMounted_ITIN_036</title>
<path fill="none" stroke="#0000ff" d="M912.3174,-187.0883C945.3209,-176.5739 989.0853,-162.6312 1024.7997,-151.2532"/>
<polygon fill="#0000ff" stroke="#0000ff" points="1026.1781,-154.4874 1034.6438,-148.117 1024.0532,-147.8177 1026.1781,-154.4874"/>
</g>
<!-- Symbol_Outlet_GPO_Double_ANN -->
<g id="node2" class="node">
<title>Symbol_Outlet_GPO_Double_ANN</title>
<ellipse fill="#c0c0c0" stroke="#c0c0c0" cx="590" cy="-202.8" rx="153.3795" ry="18"/>
<text text-anchor="middle" x="590" y="-198.6" font-family="Times,serif" font-size="14.00" fill="#000000">Symbol_Outlet_GPO_Double_ANN</text>
</g>
<!-- GPO_EmergencyPower_Double_WallMounted_ELGP_223 -->
<g id="node6" class="node">
<title>GPO_EmergencyPower_Double_WallMounted_ELGP_223</title>
<ellipse fill="#c0c0c0" stroke="#c0c0c0" cx="260" cy="-130.8" rx="243.6402" ry="18"/>
<text text-anchor="middle" x="260" y="-126.6" font-family="Times,serif" font-size="14.00" fill="#000000">GPO_EmergencyPower_Double_WallMounted_ELGP_223</text>
</g>
<!-- Symbol_Outlet_GPO_Double_ANN&#45;&gt;GPO_EmergencyPower_Double_WallMounted_ELGP_223 -->
<g id="edge4" class="edge">
<title>Symbol_Outlet_GPO_Double_ANN&#45;&gt;GPO_EmergencyPower_Double_WallMounted_ELGP_223</title>
<path fill="none" stroke="#000000" d="M517.1716,-186.9102C467.4216,-176.0556 401.2113,-161.6097 348.4317,-150.0942"/>
<polygon fill="#000000" stroke="#000000" points="348.9186,-146.6182 338.4023,-147.906 347.4264,-153.4573 348.9186,-146.6182"/>
</g>
<!-- Symbol_Outlet_GPO_Double_ANN&#45;&gt;GPO_Double_WallMounted_ELGP_208 -->
<g id="edge11" class="edge">
<title>Symbol_Outlet_GPO_Double_ANN&#45;&gt;GPO_Double_WallMounted_ELGP_208</title>
<path fill="none" stroke="#000000" d="M615.2135,-185.0022C628.2088,-175.8291 644.2355,-164.5161 658.2796,-154.6026"/>
<polygon fill="#000000" stroke="#000000" points="660.5718,-157.2688 666.7231,-148.6425 656.535,-151.55 660.5718,-157.2688"/>
</g>
<!-- Symbol_Outlet_Data_Triple_ANN -->
<g id="node3" class="node">
<title>Symbol_Outlet_Data_Triple_ANN</title>
<ellipse fill="#c0c0c0" stroke="#c0c0c0" cx="1128" cy="-202.8" rx="147.0537" ry="18"/>
<text text-anchor="middle" x="1128" y="-198.6" font-family="Times,serif" font-size="14.00" fill="#000000">Symbol_Outlet_Data_Triple_ANN</text>
</g>
<!-- Symbol_Outlet_Data_Triple_ANN&#45;&gt;Outlet_Data_Triple_WallMounted_ITIN_036 -->
<g id="edge10" class="edge">
<title>Symbol_Outlet_Data_Triple_ANN&#45;&gt;Outlet_Data_Triple_WallMounted_ITIN_036</title>
<path fill="none" stroke="#000000" d="M1118.1587,-184.6314C1113.8043,-176.5925 1108.5902,-166.9666 1103.7831,-158.0918"/>
<polygon fill="#000000" stroke="#000000" points="1106.8143,-156.3392 1098.9739,-149.2133 1100.6592,-159.6732 1106.8143,-156.3392"/>
</g>
<!-- Label_Text_1_5mm_ANN -->
<g id="node4" class="node">
<title>Label_Text_1_5mm_ANN</title>
<ellipse fill="#c0c0c0" stroke="#c0c0c0" cx="260" cy="-274.8" rx="115.758" ry="18"/>
<text text-anchor="middle" x="260" y="-270.6" font-family="Times,serif" font-size="14.00" fill="#000000">Label_Text_1_5mm_ANN</text>
</g>
<!-- Label_Text_Rotation_1_5mm_ANN -->
<g id="node5" class="node">
<title>Label_Text_Rotation_1_5mm_ANN</title>
<ellipse fill="#c0c0c0" stroke="#c0c0c0" cx="260" cy="-202.8" rx="153.9418" ry="18"/>
<text text-anchor="middle" x="260" y="-198.6" font-family="Times,serif" font-size="14.00" fill="#000000">Label_Text_Rotation_1_5mm_ANN</text>
</g>
<!-- Label_Text_1_5mm_ANN&#45;&gt;Label_Text_Rotation_1_5mm_ANN -->
<g id="edge1" class="edge">
<title>Label_Text_1_5mm_ANN&#45;&gt;Label_Text_Rotation_1_5mm_ANN</title>
<path fill="none" stroke="#000000" d="M260,-256.6314C260,-248.931 260,-239.7743 260,-231.2166"/>
<polygon fill="#000000" stroke="#000000" points="263.5001,-231.2132 260,-221.2133 256.5001,-231.2133 263.5001,-231.2132"/>
</g>
<!-- Label_Text_Rotation_1_5mm_ANN&#45;&gt;GPO_EmergencyPower_Double_WallMounted_ELGP_223 -->
<g id="edge2" class="edge">
<title>Label_Text_Rotation_1_5mm_ANN&#45;&gt;GPO_EmergencyPower_Double_WallMounted_ELGP_223</title>
<path fill="none" stroke="#000000" d="M260,-184.6314C260,-176.931 260,-167.7743 260,-159.2166"/>
<polygon fill="#000000" stroke="#000000" points="263.5001,-159.2132 260,-149.2133 256.5001,-159.2133 263.5001,-159.2132"/>
</g>
<!-- GPO_EmergencyPower_Double_WallMounted_ELGP_223&#45;&gt;Bollard_Services_Laboratory_BenchMounted_3Sided_FIJO_646 -->
<g id="edge3" class="edge">
<title>GPO_EmergencyPower_Double_WallMounted_ELGP_223&#45;&gt;Bollard_Services_Laboratory_BenchMounted_3Sided_FIJO_646</title>
<path fill="none" stroke="#000000" d="M375.7584,-114.9547C459.1181,-103.5443 571.5958,-88.1481 657.6943,-76.3628"/>
<polygon fill="#000000" stroke="#000000" points="658.3608,-79.8043 667.7937,-74.9803 657.4114,-72.8689 658.3608,-79.8043"/>
</g>
<!-- GPO_Double_WallMounted_ELGP_208&#45;&gt;Bollard_Services_Laboratory_BenchMounted_3Sided_FIJO_646 -->
<g id="edge6" class="edge">
<title>GPO_Double_WallMounted_ELGP_208&#45;&gt;Bollard_Services_Laboratory_BenchMounted_3Sided_FIJO_646</title>
<path fill="none" stroke="#0000ff" d="M715.7202,-112.6314C727.4094,-103.6779 741.6688,-92.7558 754.2809,-83.0955"/>
<polygon fill="#0000ff" stroke="#0000ff" points="756.4769,-85.8222 762.2874,-76.9628 752.2203,-80.2651 756.4769,-85.8222"/>
</g>
<!-- Outlet_Data_Triple_WallMounted_ITIN_036&#45;&gt;Bollard_Services_Laboratory_BenchMounted_3Sided_FIJO_646 -->
<g id="edge8" class="edge">
<title>Outlet_Data_Triple_WallMounted_ITIN_036&#45;&gt;Bollard_Services_Laboratory_BenchMounted_3Sided_FIJO_646</title>
<path fill="none" stroke="#0000ff" d="M1018.3424,-114.0101C973.6095,-103.3805 915.5784,-89.5909 868.7032,-78.4523"/>
<polygon fill="#0000ff" stroke="#0000ff" points="869.417,-75.0245 858.8787,-76.1177 867.7987,-81.8348 869.417,-75.0245"/>
</g>
</g>
</svg>
