<?xml version="1.0" encoding="UTF-8" standalone="no"?>
<!DOCTYPE svg PUBLIC "-//W3C//DTD SVG 1.1//EN"
 "http://www.w3.org/Graphics/SVG/1.1/DTD/svg11.dtd">
<!-- Generated by graphviz version 2.40.1 (20161225.0304)
 -->
<!-- Title: G Pages: 1 -->
<svg width="192pt" height="245pt"
 viewBox="0.00 0.00 192.00 244.80" xmlns="http://www.w3.org/2000/svg" xmlns:xlink="http://www.w3.org/1999/xlink">
<g id="graph0" class="graph" transform="scale(1 1) rotate(0) translate(4 240.8)">
<title>G</title>
<polygon fill="#ffffff" stroke="transparent" points="-4,4 -4,-240.8 188,-240.8 188,4 -4,4"/>
<g id="clust1" class="cluster">
<title>cluster_0</title>
<polygon fill="#d3d3d3" stroke="#d3d3d3" points="8,-8 8,-228.8 176,-228.8 176,-8 8,-8"/>
<text text-anchor="middle" x="92" y="-212.2" font-family="Times,serif" font-size="14.00" fill="#000000">Principle of family updates</text>
</g>
<!-- Reporting -->
<g id="node1" class="node">
<title>Reporting</title>
<ellipse fill="#ffffff" stroke="#ffffff" cx="100" cy="-178" rx="49.8194" ry="18"/>
<text text-anchor="middle" x="100" y="-173.8" font-family="Times,serif" font-size="14.00" fill="#000000">Reporting</text>
</g>
<!-- Modifying -->
<g id="node2" class="node">
<title>Modifying</title>
<ellipse fill="#ffffff" stroke="#ffffff" cx="82" cy="-106" rx="52.1906" ry="18"/>
<text text-anchor="middle" x="82" y="-101.8" font-family="Times,serif" font-size="14.00" fill="#000000">Modifying</text>
</g>
<!-- Reporting&#45;&gt;Modifying -->
<g id="edge1" class="edge">
<title>Reporting&#45;&gt;Modifying</title>
<path fill="none" stroke="#000000" d="M95.4578,-159.8314C93.5116,-152.0463 91.1932,-142.7729 89.0337,-134.1347"/>
<polygon fill="#000000" stroke="#000000" points="92.4242,-133.2658 86.6033,-124.4133 85.6332,-134.9636 92.4242,-133.2658"/>
</g>
<!-- Reloading -->
<g id="node3" class="node">
<title>Reloading</title>
<ellipse fill="#ffffff" stroke="#ffffff" cx="99" cy="-34" rx="50.9638" ry="18"/>
<text text-anchor="middle" x="99" y="-29.8" font-family="Times,serif" font-size="14.00" fill="#000000">Reloading</text>
</g>
<!-- Modifying&#45;&gt;Reloading -->
<g id="edge2" class="edge">
<title>Modifying&#45;&gt;Reloading</title>
<path fill="none" stroke="#000000" d="M86.2898,-87.8314C88.108,-80.131 90.2699,-70.9743 92.2905,-62.4166"/>
<polygon fill="#000000" stroke="#000000" points="95.7608,-62.95 94.6524,-52.4133 88.9481,-61.3414 95.7608,-62.95"/>
</g>
<!-- Reloading&#45;&gt;Reporting -->
<g id="edge3" class="edge">
<title>Reloading&#45;&gt;Reporting</title>
<path fill="none" stroke="#000000" d="M118.0213,-50.9968C127.4927,-60.7613 137.973,-73.8723 143,-88 148.3638,-103.0742 148.279,-108.896 143,-124 139.2844,-134.6308 132.5029,-144.733 125.4068,-153.2623"/>
<polygon fill="#000000" stroke="#000000" points="122.6243,-151.1244 118.5968,-160.9238 127.8563,-155.7748 122.6243,-151.1244"/>
</g>
</g>
</svg>
